<svg width="18" height="18" viewBox="0 0 18 18" fill="none" xmlns="http://www.w3.org/2000/svg">
  <path d="M11.2665 3.21229C11.0341 3.07367 10.7685 3.00048 10.4979 3.00049H7.50288C7.23254 3.00047 6.96722 3.0735 6.73498 3.21184C6.50274 3.35019 6.3122 3.54871 6.18352 3.78641L5.81674 4.46434C5.68806 4.70205 5.49753 4.90057 5.26528 5.03891C5.03304 5.17725 4.76772 5.25028 4.49739 5.25026H2.99952C2.60166 5.25026 2.2201 5.40828 1.93877 5.68956C1.65745 5.97084 1.4994 6.35233 1.4994 6.75011V13.4994C1.4994 13.8972 1.65745 14.2787 1.93877 14.56C2.2201 14.8413 2.60166 14.9993 2.99952 14.9993H15.0005C15.3983 14.9993 15.7799 14.8413 16.0612 14.56C16.3425 14.2787 16.5006 13.8972 16.5006 13.4994V6.75011C16.5006 6.35233 16.3425 5.97084 16.0612 5.68956C15.7799 5.40828 15.3983 5.25026 15.0005 5.25026H13.5026C13.232 5.25027 12.9664 5.17708 12.734 5.03846C12.5016 4.89983 12.311 4.70094 12.1825 4.46284L11.818 3.78791C11.6894 3.54981 11.4989 3.35092 11.2665 3.21229Z" stroke="#1FFFFB" stroke-width="2" stroke-linecap="round"/>
</svg>
